<svg xmlns="http://www.w3.org/2000/svg" viewBox="0 0 1200 800" role="img" aria-labelledby="tbTitle tbDesc" font-family="Inter, system-ui, sans-serif">
  <title id="tbTitle">Task burden: monolith vs. specialist team</title>
  <desc id="tbDesc">Left: one agent receives every task at once, radiating amber labels. Right: specialist agents each own one or two tasks in cool blue.</desc>

  <defs>
    <radialGradient id="tbHotBg" cx="0.5" cy="0.5" r="0.7">
      <stop offset="0" stop-color="#4a2f15" stop-opacity="0.85"/>
      <stop offset="1" stop-color="#0a0a0f" stop-opacity="1"/>
    </radialGradient>
    <radialGradient id="tbCoolBg" cx="0.5" cy="0.5" r="0.8">
      <stop offset="0" stop-color="#0d2238" stop-opacity="0.55"/>
      <stop offset="1" stop-color="#0a0a0f" stop-opacity="1"/>
    </radialGradient>
    <radialGradient id="tbAgent" cx="0.5" cy="0.5" r="0.5">
      <stop offset="0" stop-color="#d4b3ff"/>
      <stop offset="0.5" stop-color="#9c5cff"/>
      <stop offset="1" stop-color="#5a2db8"/>
    </radialGradient>
    <filter id="tbBigGlow" x="-100%" y="-100%" width="300%" height="300%">
      <feGaussianBlur stdDeviation="14"/>
    </filter>
  </defs>

  <!-- Backgrounds -->
  <rect width="1200" height="800" fill="#0a0a0f"/>
  <rect width="600" height="800" fill="url(#tbHotBg)"/>
  <rect x="600" width="600" height="800" fill="url(#tbCoolBg)"/>

  <!-- Divider -->
  <line x1="600" y1="40" x2="600" y2="760" stroke="#606080" stroke-width="1" stroke-dasharray="6 8"/>

  <!-- Headers -->
  <text x="300" y="50" text-anchor="middle" fill="#f2b33d" font-size="14" font-family="JetBrains Mono, ui-monospace, monospace" letter-spacing="0.18em" font-weight="600">ONE AGENT · EVERY TASK</text>
  <text x="880" y="50" text-anchor="middle" fill="#7aa8ff" font-size="14" font-family="JetBrains Mono, ui-monospace, monospace" letter-spacing="0.18em" font-weight="600">SPECIALISTS · OWNED DOMAINS</text>

  <!-- ====== LEFT: monolith with radiating labels ====== -->
  <g>
    <!-- Glow halos behind agent -->
    <circle cx="300" cy="400" r="220" fill="#f2b33d" opacity="0.06"/>
    <circle cx="300" cy="400" r="140" fill="#f2b33d" opacity="0.08"/>
    <circle cx="300" cy="400" r="80"  fill="#f2b33d" opacity="0.10"/>

    <!-- Radiating lines (24 of them, evenly distributed) -->
    <g stroke="#c08840" stroke-width="1" opacity="0.5">
      <line x1="300" y1="400" x2="100"  y2="160"/>
      <line x1="300" y1="400" x2="220"  y2="120"/>
      <line x1="300" y1="400" x2="380"  y2="120"/>
      <line x1="300" y1="400" x2="500"  y2="160"/>
      <line x1="300" y1="400" x2="540"  y2="240"/>
      <line x1="300" y1="400" x2="560"  y2="320"/>
      <line x1="300" y1="400" x2="560"  y2="400"/>
      <line x1="300" y1="400" x2="560"  y2="480"/>
      <line x1="300" y1="400" x2="540"  y2="560"/>
      <line x1="300" y1="400" x2="500"  y2="640"/>
      <line x1="300" y1="400" x2="380"  y2="680"/>
      <line x1="300" y1="400" x2="220"  y2="680"/>
      <line x1="300" y1="400" x2="100"  y2="640"/>
      <line x1="300" y1="400" x2="60"   y2="560"/>
      <line x1="300" y1="400" x2="40"   y2="480"/>
      <line x1="300" y1="400" x2="40"   y2="400"/>
      <line x1="300" y1="400" x2="40"   y2="320"/>
      <line x1="300" y1="400" x2="60"   y2="240"/>
      <line x1="300" y1="400" x2="180"  y2="200"/>
      <line x1="300" y1="400" x2="300"  y2="180"/>
      <line x1="300" y1="400" x2="420"  y2="200"/>
      <line x1="300" y1="400" x2="490"  y2="290"/>
      <line x1="300" y1="400" x2="490"  y2="510"/>
      <line x1="300" y1="400" x2="420"  y2="600"/>
      <line x1="300" y1="400" x2="180"  y2="600"/>
      <line x1="300" y1="400" x2="110"  y2="510"/>
      <line x1="300" y1="400" x2="110"  y2="290"/>
      <line x1="300" y1="400" x2="180"  y2="200"/>
    </g>

    <!-- Task labels (chunky, readable) -->
    <g font-size="15" fill="#f2b33d" font-weight="500">
      <text x="20"  y="160">DNS lookup</text>
      <text x="160" y="115">secret rotation</text>
      <text x="290" y="100" text-anchor="middle">cluster migration</text>
      <text x="395" y="115">security tools</text>
      <text x="495" y="158">firewall rule</text>
      <text x="540" y="245" font-size="14">VPN enrollment</text>
      <text x="558" y="325" font-size="14">backup check</text>
      <text x="558" y="405" font-size="14">workflow debug</text>
      <text x="558" y="485" font-size="14">log correlation</text>
      <text x="500" y="568" font-size="14">cert renewal</text>
      <text x="450" y="650">container health</text>
      <text x="290" y="710" text-anchor="middle">security triage</text>
      <text x="100" y="650">DNS sync</text>
      <text x="20"  y="568" font-size="14">firewall rule</text>
      <text x="0"   y="485" font-size="14">secret rotation</text>
      <text x="0"   y="405" font-size="14">backup check</text>
      <text x="0"   y="325" font-size="14">workflow debug</text>
      <text x="20"  y="245" font-size="14">cluster migration</text>
      <text x="120" y="200" font-size="13" opacity="0.85">cert renewal</text>
      <text x="265" y="180" font-size="13" opacity="0.85">DNS lookup</text>
      <text x="375" y="200" font-size="13" opacity="0.85">backup check</text>
      <text x="430" y="295" font-size="13" opacity="0.85">firewall rule</text>
      <text x="430" y="515" font-size="13" opacity="0.85">security triage</text>
      <text x="370" y="610" font-size="13" opacity="0.85">backup check</text>
      <text x="155" y="610" font-size="13" opacity="0.85">DNS sync</text>
      <text x="60"  y="515" font-size="13" opacity="0.85">firewall rule</text>
      <text x="60"  y="295" font-size="13" opacity="0.85">cluster migration</text>
    </g>

    <!-- Central agent node with stacked glow -->
    <circle cx="300" cy="400" r="50" fill="#9c5cff" opacity="0.35" filter="url(#tbBigGlow)"/>
    <circle cx="300" cy="400" r="38" fill="url(#tbAgent)"/>
    <circle cx="300" cy="400" r="14" fill="#f0e0ff"/>
    <text x="300" y="475" text-anchor="middle" fill="#e2e2ec" font-size="15" font-weight="600">agent</text>
  </g>

  <!-- ====== RIGHT: 8 specialists in 2 columns ====== -->
  <g>
    <!-- helper geometry: 4 rows × 2 cols
         rows at y = 130, 290, 450, 610
         cols at x = 745 (left), 1045 (right) -->

    <g font-size="14">
      <!-- row 1 left: infra-mesh -->
      <g>
        <line x1="755" y1="130" x2="820" y2="113" stroke="#4f8cff" stroke-width="1.4" opacity="0.8"/>
        <line x1="755" y1="130" x2="820" y2="147" stroke="#4f8cff" stroke-width="1.4" opacity="0.8"/>
        <circle cx="745" cy="130" r="22" fill="url(#tbAgent)"/>
        <circle cx="745" cy="130" r="8" fill="#f0e0ff"/>
        <text x="745" y="178" text-anchor="middle" fill="#e2e2ec" font-size="13" font-weight="500">infra-mesh</text>
        <text x="828" y="118" fill="#7aa8ff">VPN enrollment</text>
        <text x="828" y="152" fill="#7aa8ff">DNS sync</text>
      </g>
      <!-- row 1 right: infra-vault -->
      <g>
        <line x1="1010" y1="130" x2="1075" y2="113" stroke="#4f8cff" stroke-width="1.4" opacity="0.8"/>
        <line x1="1010" y1="130" x2="1075" y2="147" stroke="#4f8cff" stroke-width="1.4" opacity="0.8"/>
        <circle cx="1000" cy="130" r="22" fill="url(#tbAgent)"/>
        <circle cx="1000" cy="130" r="8" fill="#f0e0ff"/>
        <text x="1045" y="178" text-anchor="middle" fill="#e2e2ec" font-size="13" font-weight="500">infra-vault</text>
        <text x="1083" y="118" fill="#7aa8ff">secret rotation</text>
        <text x="1083" y="152" fill="#7aa8ff">cert renewal</text>
      </g>

      <!-- row 2 left: infra-substrate -->
      <g>
        <line x1="755" y1="290" x2="820" y2="273" stroke="#4f8cff" stroke-width="1.4" opacity="0.8"/>
        <line x1="755" y1="290" x2="820" y2="307" stroke="#4f8cff" stroke-width="1.4" opacity="0.8"/>
        <circle cx="745" cy="290" r="22" fill="url(#tbAgent)"/>
        <circle cx="745" cy="290" r="8" fill="#f0e0ff"/>
        <text x="745" y="338" text-anchor="middle" fill="#e2e2ec" font-size="13" font-weight="500">infra-substrate</text>
        <text x="828" y="278" fill="#7aa8ff">container health</text>
        <text x="828" y="312" fill="#7aa8ff">cluster migration</text>
      </g>
      <!-- row 2 right: infra-edge -->
      <g>
        <line x1="1010" y1="290" x2="1075" y2="273" stroke="#4f8cff" stroke-width="1.4" opacity="0.8"/>
        <line x1="1010" y1="290" x2="1075" y2="307" stroke="#4f8cff" stroke-width="1.4" opacity="0.8"/>
        <circle cx="1000" cy="290" r="22" fill="url(#tbAgent)"/>
        <circle cx="1000" cy="290" r="8" fill="#f0e0ff"/>
        <text x="1045" y="338" text-anchor="middle" fill="#e2e2ec" font-size="13" font-weight="500">infra-edge</text>
        <text x="1083" y="278" fill="#7aa8ff">DNS lookup</text>
        <text x="1083" y="312" fill="#7aa8ff">firewall rule</text>
      </g>

      <!-- row 3 left: infra-lan -->
      <g>
        <line x1="755" y1="450" x2="820" y2="433" stroke="#4f8cff" stroke-width="1.4" opacity="0.8"/>
        <line x1="755" y1="450" x2="820" y2="467" stroke="#4f8cff" stroke-width="1.4" opacity="0.8"/>
        <circle cx="745" cy="450" r="22" fill="url(#tbAgent)"/>
        <circle cx="745" cy="450" r="8" fill="#f0e0ff"/>
        <text x="745" y="498" text-anchor="middle" fill="#e2e2ec" font-size="13" font-weight="500">infra-lan</text>
        <text x="828" y="438" fill="#7aa8ff">internal DNS</text>
        <text x="828" y="472" fill="#7aa8ff">port profile</text>
      </g>
      <!-- row 3 right: infra-telemetry -->
      <g>
        <line x1="1010" y1="450" x2="1075" y2="433" stroke="#4f8cff" stroke-width="1.4" opacity="0.8"/>
        <line x1="1010" y1="450" x2="1075" y2="467" stroke="#4f8cff" stroke-width="1.4" opacity="0.8"/>
        <circle cx="1000" cy="450" r="22" fill="url(#tbAgent)"/>
        <circle cx="1000" cy="450" r="8" fill="#f0e0ff"/>
        <text x="1045" y="498" text-anchor="middle" fill="#e2e2ec" font-size="13" font-weight="500">infra-telemetry</text>
        <text x="1083" y="438" fill="#7aa8ff">security triage</text>
        <text x="1083" y="472" fill="#7aa8ff">log correlation</text>
      </g>

      <!-- row 4 left: infra-flow -->
      <g>
        <line x1="755" y1="610" x2="820" y2="593" stroke="#4f8cff" stroke-width="1.4" opacity="0.8"/>
        <line x1="755" y1="610" x2="820" y2="627" stroke="#4f8cff" stroke-width="1.4" opacity="0.8"/>
        <circle cx="745" cy="610" r="22" fill="url(#tbAgent)"/>
        <circle cx="745" cy="610" r="8" fill="#f0e0ff"/>
        <text x="745" y="658" text-anchor="middle" fill="#e2e2ec" font-size="13" font-weight="500">infra-flow</text>
        <text x="828" y="598" fill="#7aa8ff">workflow debug</text>
        <text x="828" y="632" fill="#7aa8ff">backup check</text>
      </g>
      <!-- row 4 right: infra-router -->
      <g>
        <line x1="1010" y1="610" x2="1075" y2="593" stroke="#4f8cff" stroke-width="1.4" opacity="0.8"/>
        <line x1="1010" y1="610" x2="1075" y2="627" stroke="#4f8cff" stroke-width="1.4" opacity="0.8"/>
        <circle cx="1000" cy="610" r="22" fill="url(#tbAgent)"/>
        <circle cx="1000" cy="610" r="8" fill="#f0e0ff"/>
        <text x="1045" y="658" text-anchor="middle" fill="#e2e2ec" font-size="13" font-weight="500">infra-router</text>
        <text x="1083" y="598" fill="#7aa8ff">classify intent</text>
        <text x="1083" y="632" fill="#7aa8ff">pick specialist</text>
      </g>
    </g>
  </g>

  <!-- Footer caption -->
  <rect x="0" y="745" width="1200" height="55" fill="#0d0d14"/>
  <text x="600" y="780" text-anchor="middle" fill="#e2e2ec" font-size="22" font-weight="600">Same Workload. Owned Domains.</text>
</svg>
