<svg xmlns="http://www.w3.org/2000/svg" viewBox="0 0 1200 1160" role="img" aria-labelledby="diagTitle diagDesc" font-family="Inter, system-ui, sans-serif">
  <title id="diagTitle">Personal AI Infrastructure Topology</title>
  <desc id="diagDesc">A specialized agent team dispatches across seven infrastructure domains (mesh, vault, substrate, edge, LAN, telemetry, workflow) plus a three-agent cyber peer layer (security, threat-detection, vuln-management). Every gated change writes one entry to a central append-only journal; the docs agent reads the journal and updates canonical sources.</desc>

  <defs>
    <linearGradient id="bg" x1="0" y1="0" x2="0" y2="1">
      <stop offset="0" stop-color="#0a0a0f"/>
      <stop offset="1" stop-color="#0d0d14"/>
    </linearGradient>
    <linearGradient id="brand" x1="0" y1="0" x2="1" y2="1">
      <stop offset="0" stop-color="#4f8cff"/>
      <stop offset="1" stop-color="#9c5cff"/>
    </linearGradient>
    <linearGradient id="panel" x1="0" y1="0" x2="0" y2="1">
      <stop offset="0" stop-color="#12121c"/>
      <stop offset="1" stop-color="#0f0f18"/>
    </linearGradient>
    <filter id="glow" x="-20%" y="-20%" width="140%" height="140%">
      <feGaussianBlur stdDeviation="6" result="b"/>
      <feMerge><feMergeNode in="b"/><feMergeNode in="SourceGraphic"/></feMerge>
    </filter>
    <marker id="arrow" viewBox="0 0 10 10" refX="9" refY="5" markerWidth="6" markerHeight="6" orient="auto">
      <path d="M0,0 L10,5 L0,10 z" fill="#7aa8ff"/>
    </marker>
    <marker id="arrowDim" viewBox="0 0 10 10" refX="9" refY="5" markerWidth="5" markerHeight="5" orient="auto">
      <path d="M0,0 L10,5 L0,10 z" fill="#606080"/>
    </marker>
  </defs>

  <rect width="1200" height="1160" fill="url(#bg)"/>

  <!-- Title -->
  <text x="40" y="48" fill="#e2e2ec" font-size="22" font-weight="600">Personal AI Infrastructure</text>
  <text x="40" y="72" fill="#848494" font-size="13" font-family="JetBrains Mono, ui-monospace, monospace">a specialized team, one dispatcher, seven infra domains + three cyber peers</text>

  <!-- Legend -->
  <g font-size="11" font-family="JetBrains Mono, ui-monospace, monospace">
    <circle cx="900" cy="56" r="5" fill="#4f8cff"/><text x="912" y="60" fill="#a8a8b8">haiku · read paths</text>
    <circle cx="1030" cy="56" r="5" fill="#9c5cff"/><text x="1042" y="60" fill="#a8a8b8">sonnet · change ops</text>
  </g>

  <!-- ===== AGENT TEAM (top band) — 11 specialists in one row ===== -->
  <g>
    <rect x="40" y="100" width="1120" height="160" rx="10" fill="url(#panel)" stroke="#606080" stroke-width="1"/>
    <text x="60" y="128" fill="#e2e2ec" font-size="14" font-weight="600">The Agent Team · 11 specialists</text>
    <text x="60" y="146" fill="#848494" font-size="11" font-family="JetBrains Mono, ui-monospace, monospace">80–150 lines each · runbooks embedded · model tier color-coded below</text>

    <!-- 11 cards: width 92, gap 12, starting at x=60. Total = 11×92 + 10×12 = 1012+120 = 1132 — too wide.
         Fix: width 88, gap 12. Total = 11×88 + 10×12 = 968+120 = 1088. Fits. Start at x=70 to center. -->
    <g font-size="11">
      <!-- mesh · haiku · blue -->
      <rect x="70" y="170" width="88" height="68" rx="8" fill="#1a1a26" stroke="#4f8cff" stroke-width="1"/>
      <text x="114" y="195" text-anchor="middle" fill="#e2e2ec" font-weight="600">mesh</text>
      <text x="114" y="212" text-anchor="middle" fill="#848494" font-size="9" font-family="JetBrains Mono, monospace">peers</text>
      <text x="114" y="228" text-anchor="middle" fill="#7aa8ff" font-size="9" font-family="JetBrains Mono, monospace">haiku</text>

      <!-- vault · haiku · blue -->
      <rect x="170" y="170" width="88" height="68" rx="8" fill="#1a1a26" stroke="#4f8cff" stroke-width="1"/>
      <text x="214" y="195" text-anchor="middle" fill="#e2e2ec" font-weight="600">vault</text>
      <text x="214" y="212" text-anchor="middle" fill="#848494" font-size="9" font-family="JetBrains Mono, monospace">secrets</text>
      <text x="214" y="228" text-anchor="middle" fill="#7aa8ff" font-size="9" font-family="JetBrains Mono, monospace">haiku</text>

      <!-- substrate · sonnet · purple -->
      <rect x="270" y="170" width="88" height="68" rx="8" fill="#1a1a26" stroke="#9c5cff" stroke-width="1"/>
      <text x="314" y="195" text-anchor="middle" fill="#e2e2ec" font-weight="600">substrate</text>
      <text x="314" y="212" text-anchor="middle" fill="#848494" font-size="9" font-family="JetBrains Mono, monospace">compute</text>
      <text x="314" y="228" text-anchor="middle" fill="#9c5cff" font-size="9" font-family="JetBrains Mono, monospace">sonnet</text>

      <!-- edge · haiku · blue -->
      <rect x="370" y="170" width="88" height="68" rx="8" fill="#1a1a26" stroke="#4f8cff" stroke-width="1"/>
      <text x="414" y="195" text-anchor="middle" fill="#e2e2ec" font-weight="600">edge</text>
      <text x="414" y="212" text-anchor="middle" fill="#848494" font-size="9" font-family="JetBrains Mono, monospace">dns/tunnels</text>
      <text x="414" y="228" text-anchor="middle" fill="#7aa8ff" font-size="9" font-family="JetBrains Mono, monospace">haiku</text>

      <!-- lan · sonnet · purple -->
      <rect x="470" y="170" width="88" height="68" rx="8" fill="#1a1a26" stroke="#9c5cff" stroke-width="1"/>
      <text x="514" y="195" text-anchor="middle" fill="#e2e2ec" font-weight="600">lan</text>
      <text x="514" y="212" text-anchor="middle" fill="#848494" font-size="9" font-family="JetBrains Mono, monospace">unifi/dns</text>
      <text x="514" y="228" text-anchor="middle" fill="#9c5cff" font-size="9" font-family="JetBrains Mono, monospace">sonnet</text>

      <!-- telemetry · sonnet · purple -->
      <rect x="570" y="170" width="88" height="68" rx="8" fill="#1a1a26" stroke="#9c5cff" stroke-width="1"/>
      <text x="614" y="195" text-anchor="middle" fill="#e2e2ec" font-weight="600">telemetry</text>
      <text x="614" y="212" text-anchor="middle" fill="#848494" font-size="9" font-family="JetBrains Mono, monospace">siem/logs</text>
      <text x="614" y="228" text-anchor="middle" fill="#9c5cff" font-size="9" font-family="JetBrains Mono, monospace">sonnet</text>

      <!-- flow · haiku · blue -->
      <rect x="670" y="170" width="88" height="68" rx="8" fill="#1a1a26" stroke="#4f8cff" stroke-width="1"/>
      <text x="714" y="195" text-anchor="middle" fill="#e2e2ec" font-weight="600">flow</text>
      <text x="714" y="212" text-anchor="middle" fill="#848494" font-size="9" font-family="JetBrains Mono, monospace">workflows</text>
      <text x="714" y="228" text-anchor="middle" fill="#7aa8ff" font-size="9" font-family="JetBrains Mono, monospace">haiku</text>

      <!-- docs · haiku · blue -->
      <rect x="770" y="170" width="88" height="68" rx="8" fill="#1a1a26" stroke="#4f8cff" stroke-width="1"/>
      <text x="814" y="195" text-anchor="middle" fill="#e2e2ec" font-weight="600">docs</text>
      <text x="814" y="212" text-anchor="middle" fill="#848494" font-size="9" font-family="JetBrains Mono, monospace">journal/log</text>
      <text x="814" y="228" text-anchor="middle" fill="#7aa8ff" font-size="9" font-family="JetBrains Mono, monospace">haiku</text>

      <!-- security · sonnet · red (cyber) -->
      <rect x="870" y="170" width="88" height="68" rx="8" fill="#1a1a26" stroke="#ff5a5f" stroke-width="1"/>
      <text x="914" y="195" text-anchor="middle" fill="#e2e2ec" font-weight="600">security</text>
      <text x="914" y="212" text-anchor="middle" fill="#848494" font-size="9" font-family="JetBrains Mono, monospace">triage</text>
      <text x="914" y="228" text-anchor="middle" fill="#ff8888" font-size="9" font-family="JetBrains Mono, monospace">sonnet</text>

      <!-- threat-detection · sonnet · red (cyber) -->
      <rect x="970" y="170" width="88" height="68" rx="8" fill="#1a1a26" stroke="#ff5a5f" stroke-width="1"/>
      <text x="1014" y="195" text-anchor="middle" fill="#e2e2ec" font-weight="600">threats</text>
      <text x="1014" y="212" text-anchor="middle" fill="#848494" font-size="9" font-family="JetBrains Mono, monospace">correlation</text>
      <text x="1014" y="228" text-anchor="middle" fill="#ff8888" font-size="9" font-family="JetBrains Mono, monospace">sonnet</text>

      <!-- vuln-mgmt · haiku · red (cyber) -->
      <rect x="1070" y="170" width="88" height="68" rx="8" fill="#1a1a26" stroke="#ff5a5f" stroke-width="1"/>
      <text x="1114" y="195" text-anchor="middle" fill="#e2e2ec" font-weight="600">vulns</text>
      <text x="1114" y="212" text-anchor="middle" fill="#848494" font-size="9" font-family="JetBrains Mono, monospace">cve/patch</text>
      <text x="1114" y="228" text-anchor="middle" fill="#ff8888" font-size="9" font-family="JetBrains Mono, monospace">haiku</text>
    </g>
  </g>

  <!-- ===== DISPATCHER (middle) ===== -->
  <g>
    <rect x="460" y="310" width="280" height="80" rx="10" fill="url(#panel)" stroke="url(#brand)" stroke-width="2" filter="url(#glow)"/>
    <text x="600" y="340" text-anchor="middle" fill="#e2e2ec" font-size="15" font-weight="600">dispatcher</text>
    <text x="600" y="360" text-anchor="middle" fill="#a8a8b8" font-size="11" font-family="JetBrains Mono, monospace">routes intent → specialist</text>
    <text x="600" y="378" text-anchor="middle" fill="#848494" font-size="10" font-family="JetBrains Mono, monospace">confirmation gates · model tier policy</text>
  </g>

  <!-- Dispatcher → Agent connectors (subtle, fan out to all 11) -->
  <g stroke="#606080" stroke-width="1" fill="none" opacity="0.5">
    <path d="M510,310 C510,280 114,260 114,240"/>
    <path d="M525,310 C525,280 214,260 214,240"/>
    <path d="M540,310 C540,280 314,260 314,240"/>
    <path d="M560,310 C560,280 414,260 414,240"/>
    <path d="M580,310 C580,280 514,260 514,240"/>
    <path d="M600,310 L614,240"/>
    <path d="M620,310 C620,280 714,260 714,240"/>
    <path d="M640,310 C640,280 814,260 814,240"/>
    <path d="M660,310 C660,280 914,260 914,240" stroke="#ff5a5f" opacity="0.5"/>
    <path d="M675,310 C675,280 1014,260 1014,240" stroke="#ff5a5f" opacity="0.5"/>
    <path d="M690,310 C690,280 1114,260 1114,240" stroke="#ff5a5f" opacity="0.5"/>
  </g>

  <!-- User input arrow into dispatcher -->
  <g>
    <text x="600" y="290" text-anchor="middle" fill="#848494" font-size="11" font-family="JetBrains Mono, monospace">intent</text>
    <path d="M600,295 L600,308" stroke="#7aa8ff" stroke-width="1.5" marker-end="url(#arrow)" fill="none"/>
  </g>

  <!-- ===== DOMAIN LAYER (bottom band) ===== -->
  <g>
    <rect x="40" y="430" width="1120" height="510" rx="10" fill="url(#panel)" stroke="#606080" stroke-width="1"/>
    <text x="60" y="458" fill="#e2e2ec" font-size="14" font-weight="600">Infrastructure Domains</text>
    <text x="60" y="476" fill="#848494" font-size="11" font-family="JetBrains Mono, monospace">each domain owned by exactly one specialist · idempotent read paths · machine identity</text>

    <!-- Row 1: Mesh / Vault / Substrate / Edge -->
    <g font-size="12">
      <!-- Mesh (NetBird-style) -->
      <g transform="translate(70,500)">
        <rect width="240" height="120" rx="8" fill="#0d0d14" stroke="#4f8cff" stroke-width="1.2"/>
        <text x="16" y="26" fill="#7aa8ff" font-size="11" font-family="JetBrains Mono, monospace">01 · mesh</text>
        <text x="16" y="50" fill="#e2e2ec" font-size="14" font-weight="600">overlay network</text>
        <text x="16" y="72" fill="#a8a8b8" font-size="11">peer mesh · zero-trust routes</text>
        <text x="16" y="92" fill="#848494" font-size="11" font-family="JetBrains Mono, monospace">prereq for everything else</text>
        <circle cx="220" cy="22" r="4" fill="#4f8cff"/>
      </g>

      <!-- Vault -->
      <g transform="translate(330,500)">
        <rect width="240" height="120" rx="8" fill="#0d0d14" stroke="#9c5cff" stroke-width="1.2"/>
        <text x="16" y="26" fill="#9c5cff" font-size="11" font-family="JetBrains Mono, monospace">02 · vault</text>
        <text x="16" y="50" fill="#e2e2ec" font-size="14" font-weight="600">secrets &amp; identity</text>
        <text x="16" y="72" fill="#a8a8b8" font-size="11">machine identities · env injection</text>
        <text x="16" y="92" fill="#848494" font-size="11" font-family="JetBrains Mono, monospace">no .env on disk</text>
        <circle cx="220" cy="22" r="4" fill="#9c5cff"/>
      </g>

      <!-- Substrate -->
      <g transform="translate(590,500)">
        <rect width="240" height="120" rx="8" fill="#0d0d14" stroke="#9c5cff" stroke-width="1.2"/>
        <text x="16" y="26" fill="#9c5cff" font-size="11" font-family="JetBrains Mono, monospace">03 · substrate</text>
        <text x="16" y="50" fill="#e2e2ec" font-size="14" font-weight="600">compute &amp; storage</text>
        <text x="16" y="72" fill="#a8a8b8" font-size="11">vms · containers · ssh topology</text>
        <text x="16" y="92" fill="#848494" font-size="11" font-family="JetBrains Mono, monospace">api token + ssh key</text>
        <circle cx="220" cy="22" r="4" fill="#9c5cff"/>
      </g>

      <!-- Edge -->
      <g transform="translate(850,500)">
        <rect width="240" height="120" rx="8" fill="#0d0d14" stroke="#9c5cff" stroke-width="1.2"/>
        <text x="16" y="26" fill="#9c5cff" font-size="11" font-family="JetBrains Mono, monospace">04 · edge</text>
        <text x="16" y="50" fill="#e2e2ec" font-size="14" font-weight="600">public surface</text>
        <text x="16" y="72" fill="#a8a8b8" font-size="11">dns · tunnels · access policy</text>
        <text x="16" y="92" fill="#848494" font-size="11" font-family="JetBrains Mono, monospace">scoped api token</text>
        <circle cx="220" cy="22" r="4" fill="#9c5cff"/>
      </g>
    </g>

    <!-- Row 2: LAN / Telemetry / Flow -->
    <g font-size="12">
      <g transform="translate(200,640)">
        <rect width="240" height="120" rx="8" fill="#0d0d14" stroke="#4f8cff" stroke-width="1.2"/>
        <text x="16" y="26" fill="#7aa8ff" font-size="11" font-family="JetBrains Mono, monospace">05 · lan</text>
        <text x="16" y="50" fill="#e2e2ec" font-size="14" font-weight="600">internal network</text>
        <text x="16" y="72" fill="#a8a8b8" font-size="11">resolvers · wifi · internal dns</text>
        <text x="16" y="92" fill="#848494" font-size="11" font-family="JetBrains Mono, monospace">redundant resolvers</text>
        <circle cx="220" cy="22" r="4" fill="#4f8cff"/>
      </g>

      <g transform="translate(460,640)">
        <rect width="240" height="120" rx="8" fill="#0d0d14" stroke="#4f8cff" stroke-width="1.2"/>
        <text x="16" y="26" fill="#7aa8ff" font-size="11" font-family="JetBrains Mono, monospace">06 · telemetry</text>
        <text x="16" y="50" fill="#e2e2ec" font-size="14" font-weight="600">observability</text>
        <text x="16" y="72" fill="#a8a8b8" font-size="11">alerts · logs · agent enrollment</text>
        <text x="16" y="92" fill="#848494" font-size="11" font-family="JetBrains Mono, monospace">read-mostly</text>
        <circle cx="220" cy="22" r="4" fill="#4f8cff"/>
      </g>

      <g transform="translate(720,640)">
        <rect width="240" height="120" rx="8" fill="#0d0d14" stroke="#9c5cff" stroke-width="1.2"/>
        <text x="16" y="26" fill="#9c5cff" font-size="11" font-family="JetBrains Mono, monospace">07 · flow</text>
        <text x="16" y="50" fill="#e2e2ec" font-size="14" font-weight="600">workflow runtime</text>
        <text x="16" y="72" fill="#a8a8b8" font-size="11">scheduled jobs · webhooks</text>
        <text x="16" y="92" fill="#848494" font-size="11" font-family="JetBrains Mono, monospace">per-instance api key</text>
        <circle cx="220" cy="22" r="4" fill="#9c5cff"/>
      </g>
    </g>

    <!-- Row 3: Cyber peers -->
    <text x="60" y="800" fill="#ff5a5f" font-size="11" font-family="JetBrains Mono, monospace" letter-spacing="0.18em" font-weight="600">CYBER LAYER · peers, not children</text>
    <g font-size="12">
      <g transform="translate(70,810)">
        <rect width="340" height="110" rx="8" fill="#0d0d14" stroke="#ff5a5f" stroke-width="1.2"/>
        <text x="16" y="26" fill="#ff8888" font-size="11" font-family="JetBrains Mono, monospace">08 · security</text>
        <text x="16" y="50" fill="#e2e2ec" font-size="14" font-weight="600">triage &amp; hardening</text>
        <text x="16" y="72" fill="#a8a8b8" font-size="11">exposure review · IR coordination</text>
        <text x="16" y="92" fill="#848494" font-size="11" font-family="JetBrains Mono, monospace">recommends, parent invokes peers</text>
        <circle cx="320" cy="22" r="4" fill="#ff5a5f"/>
      </g>

      <g transform="translate(430,810)">
        <rect width="340" height="110" rx="8" fill="#0d0d14" stroke="#ff5a5f" stroke-width="1.2"/>
        <text x="16" y="26" fill="#ff8888" font-size="11" font-family="JetBrains Mono, monospace">09 · threat-detection</text>
        <text x="16" y="50" fill="#e2e2ec" font-size="14" font-weight="600">active alert triage</text>
        <text x="16" y="72" fill="#a8a8b8" font-size="11">telemetry correlation · indicator analysis</text>
        <text x="16" y="92" fill="#848494" font-size="11" font-family="JetBrains Mono, monospace">reads journal heavily</text>
        <circle cx="320" cy="22" r="4" fill="#ff5a5f"/>
      </g>

      <g transform="translate(790,810)">
        <rect width="340" height="110" rx="8" fill="#0d0d14" stroke="#ff5a5f" stroke-width="1.2"/>
        <text x="16" y="26" fill="#ff8888" font-size="11" font-family="JetBrains Mono, monospace">10 · vuln-management</text>
        <text x="16" y="50" fill="#e2e2ec" font-size="14" font-weight="600">CVE prioritization</text>
        <text x="16" y="72" fill="#a8a8b8" font-size="11">patch sequencing · hardening backlog</text>
        <text x="16" y="92" fill="#848494" font-size="11" font-family="JetBrains Mono, monospace">mostly mechanical lookups</text>
        <circle cx="320" cy="22" r="4" fill="#ff5a5f"/>
      </g>
    </g>
  </g>

  <!-- Specialist → Domain connectors -->
  <g stroke="#606080" stroke-width="1" fill="none" opacity="0.5" stroke-dasharray="3 3" marker-end="url(#arrowDim)">
    <path d="M130,240 C130,360 190,440 190,498"/>
    <path d="M290,240 C290,360 450,440 450,498"/>
    <path d="M450,240 C450,360 710,440 710,498"/>
    <path d="M610,240 C610,360 970,440 970,498"/>
    <path d="M770,240 C770,400 320,560 320,638"/>
    <path d="M930,240 C930,400 580,560 580,638"/>
    <path d="M1090,240 C1090,420 840,560 840,638"/>
  </g>

  <!-- ===== JOURNAL RAIL ===== -->
  <g>
    <!-- Write arrows from each domain card to journal rail -->
    <g stroke="#9c5cff" stroke-width="1" fill="none" opacity="0.45" stroke-dasharray="2 4">
      <path d="M190,620 L300,980"/>
      <path d="M450,620 L420,980"/>
      <path d="M710,620 L540,980"/>
      <path d="M970,620 L660,980"/>
      <path d="M320,760 L450,980"/>
      <path d="M580,760 L600,980"/>
      <path d="M840,760 L750,980"/>
      <path d="M240,920 L350,980"/>
      <path d="M600,920 L600,980"/>
      <path d="M960,920 L850,980"/>
    </g>

    <!-- Journal rail container -->
    <rect x="40" y="980" width="1120" height="100" rx="10" fill="url(#panel)" stroke="url(#brand)" stroke-width="1.5" filter="url(#glow)"/>
    <text x="60" y="1008" fill="#e2e2ec" font-size="14" font-weight="600">Central Journal</text>
    <text x="60" y="1026" fill="#848494" font-size="11" font-family="JetBrains Mono, ui-monospace, monospace">append-only · one entry per gated change · read by docs, telemetry &amp; security</text>

    <!-- Stylized journal entries -->
    <g font-family="JetBrains Mono, ui-monospace, monospace" font-size="9.5">
      <rect x="60" y="1040" width="240" height="22" rx="4" fill="#0d0d14" stroke="#9c5cff" stroke-width="0.6"/>
      <text x="70" y="1055" fill="#a8a8b8">{ts, agent: infra-mesh, action…}</text>

      <rect x="312" y="1040" width="240" height="22" rx="4" fill="#0d0d14" stroke="#9c5cff" stroke-width="0.6"/>
      <text x="322" y="1055" fill="#a8a8b8">{ts, agent: infra-vault, action…}</text>

      <rect x="564" y="1040" width="240" height="22" rx="4" fill="#0d0d14" stroke="#9c5cff" stroke-width="0.6"/>
      <text x="574" y="1055" fill="#a8a8b8">{ts, agent: infra-security, action…}</text>

      <rect x="816" y="1040" width="240" height="22" rx="4" fill="#0d0d14" stroke="#9c5cff" stroke-width="0.6"/>
      <text x="826" y="1055" fill="#a8a8b8">{ts, agent: infra-flow, action…}</text>
    </g>

    <!-- infra-docs reader, sits to the right of the journal -->
    <g>
      <rect x="1066" y="998" width="84" height="64" rx="8" fill="#1a1a26" stroke="#4f8cff" stroke-width="1.2"/>
      <text x="1108" y="1022" text-anchor="middle" fill="#e2e2ec" font-size="12" font-weight="600">infra-docs</text>
      <text x="1108" y="1040" text-anchor="middle" fill="#7aa8ff" font-size="9" font-family="JetBrains Mono, monospace">reads journal</text>
      <text x="1108" y="1053" text-anchor="middle" fill="#848494" font-size="9" font-family="JetBrains Mono, monospace">writes docs</text>
    </g>
    <!-- read arrow from journal into docs (subtle) -->
    <path d="M1056,1030 L1064,1030" stroke="#7aa8ff" stroke-width="1.2" marker-end="url(#arrow)" fill="none"/>
  </g>

  <!-- Footer note -->
  <text x="600" y="1130" text-anchor="middle" fill="#606080" font-size="10" font-family="JetBrains Mono, monospace">ageniusailabs.com · Infra-AI-IT-Team-Runbook</text>
</svg>
